<svg width="34" height="28" fill="none" xmlns="http://www.w3.org/2000/svg"><path d="M11.55 11.81h10.5c.58 0 1.05-.39 1.05-.87v-.88c0-.48-.47-.87-1.05-.87h-10.5c-.58 0-1.05.39-1.05.87v.88c0 .48.47.87 1.05.87ZM10.5 16.2c0 .48.47.87 1.05.87h10.5c.58 0 1.05-.39 1.05-.87v-.88c0-.48-.47-.87-1.05-.87h-10.5c-.58 0-1.05.39-1.05.87v.88Zm6.3 6.62a5.98 5.98 0 0 1-3.08-.83L0 13.72v11.65C0 26.82 1.41 28 3.15 28h27.3c1.74 0 3.15-1.18 3.15-2.63V13.72l-13.72 8.26c-.92.55-2 .83-3.08.83Zm15.6-13.9-1.95-1.25V5.25c0-1.45-1.41-2.62-3.15-2.62h-5.09c-.2-.13-.38-.24-.6-.36C20.52 1.6 18.33-.02 16.8 0c-1.52-.02-3.71 1.6-4.82 2.27l-.6.36H6.3c-1.74 0-3.15 1.17-3.15 2.62v2.41c-.81.51-1.36.87-1.94 1.25-.38.25-.68.56-.9.92-.2.36-.31.75-.31 1.15v.58l6.3 3.8V5.24h21v10.1l6.3-3.8v-.57c0-.8-.44-1.57-1.2-2.07Z" fill="#202026"/></svg>