<svg width="290" height="225" fill="none" xmlns="http://www.w3.org/2000/svg"><path d="M262.92 6.62C248.32 1.98 232.28 0 216.9 0c-25.63 0-53.24 5.3-72.3 19.85C125.54 5.29 97.94 0 72.3 0 46.67 0 19.06 5.3 0 19.85v193.84c0 3.3 3.29 6.62 6.57 6.62 1.32 0 1.97-.66 3.29-.66 17.75-8.6 43.38-14.56 62.44-14.56 25.64 0 53.24 5.3 72.3 19.85 17.75-11.25 49.96-19.85 72.3-19.85 21.7 0 44.04 3.97 62.45 13.9a5.9 5.9 0 0 0 3.28.66c3.29 0 6.58-3.31 6.58-6.62V19.85c-7.9-5.96-16.44-9.93-26.3-13.23Zm0 178.62c-14.47-4.63-30.24-6.61-46.02-6.61-22.34 0-54.55 8.6-72.3 19.84V46.31c17.75-11.25 49.96-19.85 72.3-19.85 15.78 0 31.56 1.99 46.02 6.62v152.16Z" fill="url(#a)"/><defs><linearGradient id="a" x1="144.6" y1="0" x2="144.6" y2="224.94" gradientUnits="userSpaceOnUse"><stop stop-color="#F18F01"/><stop offset="0" stop-color="#8E65F7"/><stop offset="1" stop-color="#6610F2"/><stop offset="1" stop-color="#5635AB"/></linearGradient></defs></svg>